<?xml version="1.0" encoding="utf-8"?>
<svg version="1.1" xmlns:xlink="http://www.w3.org/1999/xlink" width="31px" height="26px" xmlns="http://www.w3.org/2000/svg">
  <g transform="matrix(1 0 0 1 -35 -29 )">
    <path d="M 30.6165364583333 21.1859375  C 30.8721788194444 21.4432291666667  31 21.7479166666667  31 22.1  L 31 24.7  C 31 25.0520833333333  30.8721788194444 25.3567708333333  30.6165364583333 25.6140625  C 30.3608940972222 25.8713541666667  30.0581597222222 26  29.7083333333333 26  L 1.29166666666667 26  C 0.941840277777778 26  0.639105902777778 25.8713541666667  0.383463541666667 25.6140625  C 0.127821180555556 25.3567708333333  0 25.0520833333333  0 24.7  L 0 22.1  C 0 21.7479166666667  0.127821180555556 21.4432291666667  0.383463541666667 21.1859375  C 0.639105902777778 20.9286458333333  0.941840277777778 20.8  1.29166666666667 20.8  L 29.7083333333333 20.8  C 30.0581597222222 20.8  30.3608940972222 20.9286458333333  30.6165364583333 21.1859375  Z M 30.6165364583333 10.7859375  C 30.8721788194444 11.0432291666667  31 11.3479166666667  31 11.7  L 31 14.3  C 31 14.6520833333333  30.8721788194444 14.9567708333333  30.6165364583333 15.2140625  C 30.3608940972222 15.4713541666667  30.0581597222222 15.6  29.7083333333333 15.6  L 1.29166666666667 15.6  C 0.941840277777778 15.6  0.639105902777778 15.4713541666667  0.383463541666667 15.2140625  C 0.127821180555556 14.9567708333333  0 14.6520833333333  0 14.3  L 0 11.7  C 0 11.3479166666667  0.127821180555556 11.0432291666667  0.383463541666667 10.7859375  C 0.639105902777778 10.5286458333333  0.941840277777778 10.4  1.29166666666667 10.4  L 29.7083333333333 10.4  C 30.0581597222222 10.4  30.3608940972222 10.5286458333333  30.6165364583333 10.7859375  Z M 30.6165364583333 0.385937500000001  C 30.8721788194444 0.643229166666665  31 0.947916666666665  31 1.3  L 31 3.9  C 31 4.25208333333333  30.8721788194444 4.55677083333333  30.6165364583333 4.8140625  C 30.3608940972222 5.07135416666666  30.0581597222222 5.2  29.7083333333333 5.2  L 1.29166666666667 5.2  C 0.941840277777778 5.2  0.639105902777778 5.07135416666666  0.383463541666667 4.8140625  C 0.127821180555556 4.55677083333333  0 4.25208333333333  0 3.9  L 0 1.3  C 0 0.947916666666665  0.127821180555556 0.643229166666665  0.383463541666667 0.385937500000001  C 0.639105902777778 0.128645833333332  0.941840277777778 0  1.29166666666667 0  L 29.7083333333333 0  C 30.0581597222222 0  30.3608940972222 0.128645833333332  30.6165364583333 0.385937500000001  Z " fill-rule="nonzero" fill="#ffffff" stroke="none" transform="matrix(1 0 0 1 35 29 )" />
  </g>
</svg>